<svg viewBox="0 0 400 300" xmlns="http://www.w3.org/2000/svg"><path d="m148.27 229.34a5.41 5.41 0 0 1 -5.62-5.21l-5-127.3a5.42 5.42 0 0 1 5.21-5.63l120.94-4.71a5.42 5.42 0 0 1 5.63 5.21l4.96 126.3a6.44 6.44 0 0 1 -6.19 6.68z" fill="#68e1fd"/><path d="m148.06 230.35a6.41 6.41 0 0 1 -6.41-6.18l-5-127.3a6.43 6.43 0 0 1 6.17-6.67l120.98-4.7a6.41 6.41 0 0 1 6.67 6.16l4.92 126.34a7.45 7.45 0 0 1 -7.15 7.72l-119.93 4.67zm116-142.86h-.18l-120.94 4.71a4.43 4.43 0 0 0 -4.25 4.59l4.95 127.31a4.39 4.39 0 0 0 1.42 3.07 4.46 4.46 0 0 0 3.18 1.17l119.93-4.67a5.44 5.44 0 0 0 5.22-5.64l-4.92-126.29a4.42 4.42 0 0 0 -4.41-4.25z" fill="#093f68"/><path d="m238.12 218.31h-102.86a5.42 5.42 0 0 1 -5.42-5.42v-127.4a5.41 5.41 0 0 1 5.42-5.42h121a5.42 5.42 0 0 1 5.42 5.42v108.05z" fill="#fff"/><path d="m238.12 219.31h-102.86a6.44 6.44 0 0 1 -6.43-6.42v-127.4a6.44 6.44 0 0 1 6.43-6.42h121a6.43 6.43 0 0 1 6.42 6.42v108.05a1 1 0 0 1 -.28.69l-23.56 24.77a1 1 0 0 1 -.72.31zm-102.86-138.24a4.43 4.43 0 0 0 -4.43 4.42v127.4a4.44 4.44 0 0 0 4.43 4.42h102.43l23-24.17v-107.65a4.43 4.43 0 0 0 -4.42-4.42z" fill="#093f68"/><path d="m238.12 218.31v-19.12a5.18 5.18 0 0 1 5.17-5.17h18.43z" fill="#ffbc0e"/><g fill="#093f68"><path d="m238.12 219.31a1.16 1.16 0 0 1 -.37-.07 1 1 0 0 1 -.63-.93v-19.12a6.18 6.18 0 0 1 6.17-6.17h18.43a1 1 0 0 1 .72 1.7l-23.6 24.28a1 1 0 0 1 -.72.31zm5.17-24.31a4.17 4.17 0 0 0 -4.17 4.17v16.65l20.23-20.82z"/><path d="m238.12 112.38h-58a1 1 0 1 1 0-2h58a1 1 0 0 1 0 2z"/><path d="m238.12 128.23h-83.85a1 1 0 0 1 0-2h83.85a1 1 0 0 1 0 2z"/><path d="m238.12 144.09h-83.85a1 1 0 0 1 0-2h83.85a1 1 0 0 1 0 2z"/><path d="m238.12 159.94h-83.85a1 1 0 0 1 0-2h83.85a1 1 0 0 1 0 2z"/><path d="m238.12 175.8h-83.85a1 1 0 0 1 0-2h83.85a1 1 0 0 1 0 2z"/><path d="m206 191.66h-51.73a1 1 0 0 1 0-2h51.73a1 1 0 0 1 0 2z"/><path d="m163.9 98.41a5.29 5.29 0 0 1 -5.48-4.41l-3.16-17.84a5.11 5.11 0 0 1 1.12-4.36 6.43 6.43 0 0 1 7.73-1.37 5.12 5.12 0 0 1 2.55 3.71l.88 5a1 1 0 0 1 -.81 1.16 1 1 0 0 1 -1.16-.81l-.88-5a3.15 3.15 0 0 0 -1.56-2.32 4.45 4.45 0 0 0 -5.23.93 3.14 3.14 0 0 0 -.67 2.71l3.15 17.84c.42 2.34 2.48 3 4.33 2.73s3.55-1.71 3.14-4l-.65-3.65a1 1 0 0 1 2-.35l.64 3.65c.63 3.52-1.92 5.87-4.75 6.37a7.46 7.46 0 0 1 -1.19.01z"/></g><path d="m119.34 120h12a0 0 0 0 1 0 0v67a4.46 4.46 0 0 1 -4.46 4.46h-3.07a4.46 4.46 0 0 1 -4.46-4.46v-67a0 0 0 0 1 0 0z" fill="#f56132" transform="matrix(-.927706 .37331164 -.37331164 -.927706 299.74 253.31)"/><path d="m133.11 192.05a.91.91 0 0 1 -.39-.08 1 1 0 0 1 -.54-.54l-25-62.13a5.46 5.46 0 0 1 0-4.18 5.39 5.39 0 0 1 3-2.92l2.84-1.15a5.48 5.48 0 0 1 7.11 3l25 62.12a1 1 0 0 1 -.55 1.3l-11.09 4.53a1 1 0 0 1 -.38.05zm-18-69.39a3.44 3.44 0 0 0 -1.29.25l-2.82 1.14a3.47 3.47 0 0 0 -1.91 4.51l24.63 61.19 9.26-3.73-24.68-61.19a3.47 3.47 0 0 0 -3.21-2.17z" fill="#093f68"/><path d="m133.12 191.06 11.12-4.48 1.19 14.6.46 5.57-3.53-4.34z" fill="#fff"/><path d="m145.89 207.75a1 1 0 0 1 -.77-.37l-12.78-15.69a1 1 0 0 1 .4-1.56l11.13-4.48a1 1 0 0 1 .89.08 1 1 0 0 1 .48.77l1.65 20.17a1 1 0 0 1 -.63 1 .94.94 0 0 1 -.37.08zm-11.14-16.27 9.88 12.14-1.28-15.62z" fill="#093f68"/><path d="m142.36 202.41 3.07-1.23.46 5.57z" fill="#093f68"/><path d="m145.89 207.75a1 1 0 0 1 -.77-.37l-3.54-4.33a1 1 0 0 1 -.19-.89 1 1 0 0 1 .6-.67l3.07-1.24a1 1 0 0 1 1.37.84l.46 5.58a1 1 0 0 1 -.63 1 .94.94 0 0 1 -.37.08zm-1.9-4.92.64.79-.08-1z" fill="#093f68"/></svg>